<svg width="84" height="85" viewBox="0 0 84 85" fill="none" xmlns="http://www.w3.org/2000/svg">
    <path fill-rule="evenodd" clip-rule="evenodd" d="M35.0115 65.0542C52.1473 65.0542 66.0386 51.1629 66.0386 34.0271C66.0386 16.8913 52.1473 3 35.0115 3C17.8757 3 3.98438 16.8913 3.98438 34.0271C3.98438 51.1629 17.8757 65.0542 35.0115 65.0542ZM59.0581 58.1021C65.2242 51.9432 69.0386 43.4306 69.0386 34.0271C69.0386 15.2345 53.8041 0 35.0115 0C16.2188 0 0.984375 15.2345 0.984375 34.0271C0.984375 52.8198 16.2188 68.0542 35.0115 68.0542C43.3206 68.0542 50.9341 65.076 56.8427 60.1288L80.4473 83.8562C81.0316 84.4435 81.9813 84.446 82.5686 83.8617C83.1559 83.2775 83.1584 82.3277 82.5741 81.7404L59.0581 58.1021ZM46.1867 23.3155C46.7481 22.7063 46.7481 21.7185 46.1867 21.1093C45.6253 20.5001 44.7151 20.5001 44.1537 21.1093L34.6 31.477L25.0462 21.1093C24.4848 20.5001 23.5746 20.5001 23.0132 21.1093C22.4519 21.7185 22.4519 22.7063 23.0132 23.3155L32.567 33.6831L23.0168 44.0469C22.4554 44.6562 22.4554 45.6439 23.0168 46.2531C23.5782 46.8623 24.4883 46.8623 25.0497 46.2531L34.6 35.8893L44.1502 46.2531C44.7116 46.8623 45.6218 46.8623 46.1832 46.2531C46.7446 45.6439 46.7446 44.6562 46.1832 44.0469L36.6329 33.6831L46.1867 23.3155Z" fill="#D9D9D9"/>
</svg>
