<svg width="14" height="14" viewBox="0 0 14 14" fill="none" xmlns="http://www.w3.org/2000/svg">
<path fill-rule="evenodd" clip-rule="evenodd" d="M12.8499 13.4398C13.0452 13.635 13.3618 13.635 13.557 13.4398C13.7523 13.2445 13.7523 12.9279 13.557 12.7327L7.82661 7.00224L13.5593 1.26957C13.7546 1.07431 13.7546 0.757723 13.5593 0.562461C13.364 0.3672 13.0474 0.3672 12.8522 0.562461L7.11951 6.29514L1.38683 0.562462C1.19157 0.3672 0.874987 0.3672 0.679725 0.562462C0.484463 0.757724 0.484463 1.07431 0.679725 1.26957L6.4124 7.00224L0.68197 12.7327C0.486708 12.9279 0.486708 13.2445 0.68197 13.4398C0.877232 13.635 1.19381 13.635 1.38908 13.4398L7.11951 7.70935L12.8499 13.4398Z" fill="#D9D9D9"/>
</svg>
