<svg width="52" height="34" viewBox="0 0 52 34" fill="none" xmlns="http://www.w3.org/2000/svg">
<path fill-rule="evenodd" clip-rule="evenodd" d="M51.0762 0.186401V0.686402V27.2262C51.0762 30.816 48.166 33.7262 44.5762 33.7262H7.42578C5.74643 33.7262 4.21583 33.0893 3.06232 32.0439L3.03665 32.0673L2.36376 31.3275L2.37472 31.3176C1.46867 30.2004 0.925781 28.7767 0.925781 27.2262V0.686422V0.186423L1.42578 0.186422L50.5762 0.186401H51.0762ZM3.80616 31.3673C4.7734 32.2134 6.03972 32.7262 7.42578 32.7262H44.5762C45.7897 32.7262 46.9114 32.3332 47.8209 31.6675L32.3974 17.0557L30.3583 18.8177C27.9271 20.9185 24.3258 20.9278 21.8839 18.8395L19.6649 16.9419L3.80616 31.3673ZM18.8989 16.2869L3.1159 30.6434C2.37082 29.7049 1.92578 28.5175 1.92578 27.2262V1.77191L18.8989 16.2869ZM50.0762 27.2262C50.0762 28.6889 49.5052 30.0182 48.574 31.0034L33.1578 16.3986L50.0762 1.77927V27.2262ZM49.2328 1.1864L2.77978 1.18642L22.5338 18.0795C24.6 19.8465 27.6473 19.8387 29.7045 18.0611L49.2328 1.1864Z" fill="#4C4C4C"/>
</svg>
