<svg class="page__header-header-icon" width="90" height="108" viewBox="0 0 90 108" fill="none"
     xmlns="http://www.w3.org/2000/svg">
    <path fill-rule="evenodd" clip-rule="evenodd"
          d="M6.6875 0.196777C3.09765 0.196777 0.1875 3.10693 0.1875 6.69678V100.947C0.1875 104.537 3.09765 107.447 6.6875 107.447H42.603C43.4315 107.447 44.103 106.776 44.103 105.947C44.103 105.119 43.4315 104.447 42.603 104.447H6.6875C4.75451 104.447 3.1875 102.88 3.1875 100.947V6.69678C3.1875 4.76378 4.75451 3.19678 6.6875 3.19678H78.5186C80.4516 3.19678 82.0186 4.76378 82.0186 6.69678V39.8099C82.0186 40.6383 82.6902 41.3099 83.5186 41.3099C84.347 41.3099 85.0186 40.6383 85.0186 39.8099V6.69678C85.0186 3.10692 82.1084 0.196777 78.5186 0.196777H6.6875ZM14.5788 20.3743C13.7504 20.3743 13.0788 21.0459 13.0788 21.8743C13.0788 22.7027 13.7504 23.3743 14.5788 23.3743H69.5065C70.335 23.3743 71.0065 22.7027 71.0065 21.8743C71.0065 21.0459 70.335 20.3743 69.5065 20.3743H14.5788ZM70.0893 52.3219H70.1721C75.6104 52.3219 78.8847 54.3425 80.5853 57.3581C82.2003 60.2218 82.2093 63.673 81.9094 66.2335C81.8738 66.5373 81.7979 66.8308 81.681 67.1143C80.8521 69.1253 79.3699 72.0177 77.4822 74.3998C76.5379 75.5914 75.4498 76.7095 74.2423 77.5183C73.0325 78.3288 71.6171 78.8836 70.0723 78.7806C67.1991 78.589 64.7325 76.3767 62.929 74.1586C61.0598 71.8597 59.5788 69.1507 58.7302 67.2524C58.5502 66.8498 58.4555 66.4162 58.4403 65.9945C58.2073 59.5412 60.0025 55.9818 62.8003 54.1426C64.9789 52.7104 67.6065 52.5164 69.2214 52.3972L69.2217 52.3971L69.2222 52.3971L69.2226 52.3971C69.522 52.375 69.7866 52.3554 70.007 52.331L70.0893 52.3219ZM70.2518 55.322C69.9101 55.3584 69.5637 55.387 69.2152 55.4157C67.5862 55.5499 65.9108 55.688 64.4483 56.6494C62.8614 57.6926 61.2261 60.0058 61.4384 65.8863C61.4404 65.942 61.454 65.9945 61.469 66.0281C62.242 67.7573 63.5957 70.2234 65.2566 72.266C66.9833 74.3895 68.7421 75.6852 70.2719 75.7872C70.9517 75.8325 71.7156 75.6 72.5727 75.0258C73.4323 74.45 74.2992 73.5861 75.1309 72.5365C76.7953 70.4363 78.1495 67.8098 78.9074 65.971C78.9193 65.9423 78.9261 65.9161 78.9298 65.8845C79.2063 63.5235 79.1139 60.8562 77.9722 58.8317C76.9222 56.9699 74.8032 55.3408 70.2518 55.322ZM77.2448 79.1055C77.8379 78.5133 78.7272 78.0099 79.7907 78.0525C83.0723 78.184 85.3368 79.7656 86.7849 81.7567C88.1951 83.6956 88.8257 86.001 89.0218 87.745C89.1228 88.6425 88.8322 89.5193 88.2602 90.1801C85.5909 93.2641 79.0891 98.4616 70.5584 98.4616C62.3066 98.4616 55.333 93.5907 52.16 90.5416C51.2118 89.6304 50.8913 88.2264 51.3985 86.9843C53.6808 81.3944 58.4151 79.0165 61.4682 78.2952C62.9209 77.952 64.176 78.716 64.8721 79.5978C65.9898 81.0136 67.1217 81.8019 68.1866 82.2034C69.2516 82.605 70.3404 82.6538 71.4252 82.4504C73.6457 82.0341 75.78 80.568 77.2448 79.1055ZM79.5759 81.0752C79.518 81.1013 79.4429 81.1502 79.3644 81.2285C77.6641 82.9261 75.0119 84.8303 71.978 85.3991C70.4356 85.6882 68.7803 85.6334 67.1283 85.0106C65.4762 84.3877 63.9182 83.231 62.5175 81.4567C62.4237 81.3379 62.3227 81.2669 62.2493 81.2347C62.1868 81.2073 62.1622 81.2137 62.1583 81.2148L62.158 81.2149C59.7456 81.7847 55.9881 83.6798 54.1759 88.1183C54.1436 88.1975 54.1578 88.3008 54.2387 88.3785C57.1412 91.1677 63.4058 95.4616 70.5584 95.4616C77.9007 95.4616 83.645 90.9282 85.9919 88.2168C86.0351 88.1668 86.0448 88.1169 86.0406 88.0802C85.8841 86.6879 85.3786 84.9234 84.3587 83.5212C83.3768 82.1711 81.9173 81.1401 79.6705 81.0501C79.6609 81.0497 79.6308 81.0504 79.5759 81.0752ZM13.0788 38.689C13.0788 37.8606 13.7504 37.189 14.5788 37.189H39.2402C40.0687 37.189 40.7402 37.8606 40.7402 38.689C40.7402 39.5174 40.0687 40.189 39.2402 40.189H14.5788C13.7504 40.189 13.0788 39.5174 13.0788 38.689Z"
          fill="#F9F9F9"/>
</svg>
