<svg width="46" height="60" viewBox="0 0 46 60" fill="none" xmlns="http://www.w3.org/2000/svg">
<path d="M22.5418 0V41.9606M22.5418 41.9606L33.3025 31.3803M22.5418 41.9606L12.7129 31.3803" stroke="#4C4C4C"/>
<path d="M13.4339 18.9664H5.04776C3.69513 18.9664 1.23644 19.0927 1.38072 22.6034C1.52499 26.1142 1.44083 45.9683 1.38072 55.4565C1.2104 56.729 1.70538 59.2378 5.04776 59.0935C8.39015 58.9493 30.2662 59.0334 40.7864 59.0935C42.1991 59.1536 44.6338 58.793 44.6338 56.5386C44.6338 54.3282 44.5035 33.0034 44.6338 22.6034C44.6939 21.4011 44.724 18.9664 42.0789 18.9664C39.4338 18.9664 34.2839 18.9664 32.0396 18.9664" stroke="#4C4C4C" stroke-linecap="round"/>
</svg>
