<svg width="25" height="25" viewBox="0 0 25 25" fill="none" xmlns="http://www.w3.org/2000/svg">
<path d="M8.59865 3.3418H2.92169C1.99503 3.3418 0.391627 3.57361 0.532088 6.10191C0.672549 8.6302 0.590613 17.4558 0.532088 21.5526C0.493037 22.3915 1.03531 24.0458 3.51678 23.9521C5.99825 23.8585 15.7096 23.9131 20.255 23.9521C20.9963 23.8936 22.7143 23.3501 22.8301 21.5526C22.9471 19.7383 22.8301 16.9291 22.8301 15.8756" stroke="#D9D9D9"/>
<path d="M19.3142 1.65407C19.7824 1.01029 21.304 0.717672 21.8893 1.18587C22.4474 1.63233 23.3134 2.31736 23.645 2.649C23.9767 2.98064 23.9962 4.34624 23.1768 5.16559C22.9931 5.34936 22.5011 5.71584 21.8893 6.30721C19.627 8.49402 15.2412 13.1511 12.8764 15.7002L7.375 17.1048L9.13076 11.9545L18.1377 2.8441L18.4948 2.47343L19.3142 1.65407Z" fill="#D9D9D9"/>
<path d="M9.13076 11.9545L12.8764 15.7002M9.13076 11.9545L7.375 17.1048L12.8764 15.7002M9.13076 11.9545L18.1377 2.8441M12.8764 15.7002C15.2412 13.1511 19.627 8.49402 21.8893 6.30721M21.8893 6.30721C22.5011 5.71584 22.9931 5.34936 23.1768 5.16559C23.9962 4.34624 23.9767 2.98064 23.645 2.649C23.3134 2.31736 22.4474 1.63233 21.8893 1.18587C21.304 0.717672 19.7824 1.01029 19.3142 1.65407L18.4948 2.47343L18.1377 2.8441M21.8893 6.30721L18.1377 2.8441" stroke="white"/>
</svg>
