<svg class="page__header-header-icon" width="97" height="97" viewBox="0 0 97 97" fill="none"
     xmlns="http://www.w3.org/2000/svg">
    <path fill-rule="evenodd" clip-rule="evenodd"
          d="M12.1158 3.83301C11.8397 3.83301 11.6158 4.05687 11.6158 4.333V38.8527L50.1002 69.4977C50.2895 69.6485 50.5596 69.642 50.7415 69.4824L85.5953 38.8964V4.33301C85.5953 4.05687 85.3715 3.83301 85.0953 3.83301H12.1158ZM88.5953 36.2638V4.33301C88.5953 2.40001 87.0283 0.833008 85.0953 0.833008H12.1158C10.1828 0.833008 8.6158 2.4 8.6158 4.333V36.4638L5.68024 34.1263C3.38731 32.3004 0 33.9332 0 36.8642V92.8394C0 93.4717 0.167656 94.0648 0.460938 94.5768V95.2929C0.460938 96.1213 1.13251 96.7929 1.96094 96.7929C2.39577 96.7929 2.78737 96.6078 3.06134 96.3122C3.20504 96.3302 3.35144 96.3394 3.5 96.3394H92.9134C94.8464 96.3394 96.4134 94.7724 96.4134 92.8394V37.131C96.4134 34.1216 92.8668 32.5153 90.6048 34.5003L88.5953 36.2638ZM3.45433 93.3374C3.46937 93.3387 3.48461 93.3394 3.5 93.3394H92.9134C93.1895 93.3394 93.4134 93.1156 93.4134 92.8394V37.131C93.4134 36.7011 92.9067 36.4716 92.5836 36.7552L88.0847 40.7032L52.7203 71.7373C51.4471 72.8546 49.5566 72.8997 48.2315 71.8446L9.18141 40.7492L3.81146 36.4731C3.4839 36.2123 3 36.4455 3 36.8642V92.3972C3.25219 92.6395 3.41984 92.9691 3.45433 93.3374ZM37.4688 30.769C37.4688 23.4246 43.4074 17.4673 50.7447 17.4371C51.6819 17.509 52.2476 17.5455 52.611 17.5685C53.0151 17.5941 53.0923 17.5996 53.1472 17.6074C53.1762 17.6116 53.1839 17.6134 53.2922 17.6393C53.3394 17.6505 53.4056 17.6663 53.5009 17.6889C53.774 17.7534 54.1989 17.8498 54.9561 18.0013C55.7685 18.1638 56.5587 17.637 56.7212 16.8247C56.8837 16.0123 56.3569 15.2221 55.5446 15.0596C54.8186 14.9144 54.4278 14.8253 54.191 14.7693C54.1564 14.7611 54.1215 14.7527 54.0862 14.7442C53.9221 14.7046 53.7507 14.6632 53.5714 14.6376C53.3876 14.6113 53.177 14.5981 52.8983 14.5806L52.8982 14.5806L52.8005 14.5745C52.4391 14.5516 51.8714 14.515 50.9159 14.4414L50.8584 14.437H50.8008C41.7808 14.437 34.4688 21.7491 34.4688 30.769C34.4688 39.7889 41.7808 47.1011 50.8008 47.1011C54.3625 47.1011 58.9931 45.6389 62.3632 42.2016C65.8058 38.6902 67.7849 33.2698 66.2113 25.7169C66.0424 24.9059 65.2479 24.3854 64.4369 24.5543C63.6259 24.7233 63.1054 25.5177 63.2744 26.3287C64.6673 33.0145 62.8857 37.3833 60.221 40.1013C57.4836 42.8934 53.6599 44.1011 50.8008 44.1011C43.4377 44.1011 37.4688 38.1321 37.4688 30.769ZM65.616 18.3572C66.1336 17.7103 66.0287 16.7664 65.3818 16.2489C64.7349 15.7313 63.791 15.8362 63.2734 16.4831L50.1307 32.9115L45.0843 27.3844C44.5257 26.7727 43.5769 26.7295 42.9652 27.2881C42.3534 27.8467 42.3102 28.7955 42.8688 29.4073L49.0983 36.23L50.2813 37.5257L51.3773 36.1556L65.616 18.3572Z"
          fill="#F9F9F9"/>
</svg>
