<svg width="18" height="24" viewBox="0 0 18 24" fill="none" xmlns="http://www.w3.org/2000/svg">
<path fill-rule="evenodd" clip-rule="evenodd" d="M6.54102 2.45605C6.54102 2.17991 6.76487 1.95605 7.04102 1.95605H11.5716C11.8478 1.95605 12.0716 2.17991 12.0716 2.45605V4.35709H6.54102V2.45605ZM5.54102 4.35709V2.45605C5.54102 1.62763 6.21259 0.956055 7.04102 0.956055H11.5716C12.4001 0.956055 13.0716 1.62763 13.0716 2.45605V4.35709H16.5011C17.3295 4.35709 18.0011 5.02866 18.0011 5.85709V7.1322C18.0011 7.86922 17.4695 8.48209 16.7689 8.60836V22.5C16.7689 23.3284 16.0973 24 15.2689 24H3.59157C2.76314 24 2.09157 23.3284 2.09157 22.5V8.60836C1.39092 8.48209 0.859375 7.86922 0.859375 7.1322V5.85709C0.859375 5.02866 1.53095 4.35709 2.35938 4.35709H5.54102ZM1.85938 5.85709C1.85938 5.58095 2.08323 5.35709 2.35938 5.35709H16.5011C16.7772 5.35709 17.0011 5.58095 17.0011 5.85709V7.1322C17.0011 7.40834 16.7772 7.6322 16.5011 7.6322H16.2689H2.59157H2.35937C2.08323 7.6322 1.85938 7.40834 1.85938 7.1322V5.85709ZM3.09157 22.5V8.6322H6.1582V19.2172H7.1582V8.6322H11.5801V19.2172H12.5801V8.6322H15.7689V22.5C15.7689 22.7762 15.545 23 15.2689 23H3.59157C3.31542 23 3.09157 22.7762 3.09157 22.5Z" fill="#D9D9D9"/>
</svg>
