<svg width="98" height="109" viewBox="0 0 98 109" fill="none" xmlns="http://www.w3.org/2000/svg">
    <path fill-rule="evenodd" clip-rule="evenodd" d="M51.8693 0.999018C50.5693 -0.235754 48.5285 -0.356459 47.1072 0.80796C42.7043 4.41516 35.799 9.30193 27.9525 13.3974C20.0861 17.5033 11.3969 20.7487 3.39464 21.2057C1.58067 21.3094 -0.0213705 22.767 0.000215658 24.7495C0.147629 38.2881 2.62835 59.0038 9.92329 76.3929C17.2068 93.7547 29.5197 108.261 49.4954 108.261C70.0021 108.261 82.1352 94.5886 89.0186 77.4974C95.892 60.431 97.708 39.6161 97.5213 24.3825C97.5004 22.6721 96.2611 21.3058 94.6571 20.9952C84.4094 19.0112 64.2411 12.7495 51.8693 0.999018ZM49.0084 3.12859C49.2256 2.95069 49.5676 2.95039 49.8033 3.17426C62.799 15.5173 83.6506 21.92 94.0869 23.9405C94.3697 23.9953 94.519 24.208 94.5216 24.4192C94.7059 39.4688 92.8984 59.8338 86.2358 76.3767C79.5832 92.8947 68.2677 105.261 49.4954 105.261C31.3355 105.261 19.7969 92.174 12.6897 75.2324C5.594 58.3181 3.14489 38.0199 3.00004 24.7168C2.99768 24.5003 3.18414 24.2227 3.56572 24.2009C12.1793 23.7089 21.3078 20.2497 29.3407 16.0569C37.3935 11.8538 44.4691 6.84755 49.0084 3.12859ZM72.5802 39.7945C73.151 39.1941 73.1271 38.2447 72.5267 37.6738C71.9264 37.103 70.9769 37.1269 70.4061 37.7273L42.8453 66.7136C42.6492 66.9199 42.3206 66.921 42.1231 66.7161L30.0729 54.2197C29.4979 53.6233 28.5483 53.6061 27.9519 54.1811C27.3556 54.7561 27.3383 55.7057 27.9134 56.3021L39.9635 68.7985C41.3466 70.2329 43.6464 70.2248 45.0194 68.7808L72.5802 39.7945Z" fill="#F9F9F9"/>
</svg>
