<svg class="page__header-header-icon" width="97" height="100" viewBox="0 0 97 100" fill="none"
     xmlns="http://www.w3.org/2000/svg">
    <path fill-rule="evenodd" clip-rule="evenodd"
          d="M40.2847 77.5695C60.8765 77.5695 77.5695 60.8765 77.5695 40.2847C77.5695 19.6929 60.8765 3 40.2847 3C19.6929 3 3 19.6929 3 40.2847C3 60.8765 19.6929 77.5695 40.2847 77.5695ZM40.2847 80.5695C50.1848 80.5695 59.2507 76.9983 66.2647 71.0739L94.2774 99.0866L96.3987 96.9653L68.4857 69.0522C75.9429 61.741 80.5695 51.5532 80.5695 40.2847C80.5695 18.0361 62.5334 0 40.2847 0C18.0361 0 0 18.0361 0 40.2847C0 62.5334 18.0361 80.5695 40.2847 80.5695ZM40.7101 19.5681H40.7929C45.6786 19.5681 48.6592 21.3834 50.2141 24.1268C51.6838 26.7198 51.6934 29.8343 51.4278 32.1298C51.3924 32.4353 51.3157 32.731 51.1982 33.0151C50.4513 34.8209 49.1222 37.409 47.4282 39.542C46.5807 40.6091 45.5997 41.6163 44.5057 42.3473C43.4092 43.08 42.1144 43.5896 40.6932 43.4948C38.0665 43.3197 35.8347 41.3098 34.2243 39.3349C32.5486 37.2799 31.2209 34.8587 30.4548 33.1528C30.2734 32.749 30.1786 32.3146 30.164 31.8914C29.9639 26.1224 31.577 22.8908 34.1365 21.2132C36.1175 19.9148 38.5104 19.7395 39.9441 19.6345L39.9442 19.6345C40.2072 19.6152 40.4379 19.5983 40.6278 19.5772L40.7101 19.5681ZM40.8723 22.5683C40.5615 22.6013 40.2493 22.6272 39.9372 22.653C38.49 22.7729 37.0472 22.8924 35.781 23.7223C34.4316 24.6067 32.982 26.5943 33.1622 31.7874C33.164 31.8417 33.1772 31.8919 33.1915 31.9238C33.8823 33.4621 35.0827 35.6404 36.5493 37.439C38.0811 39.3177 39.6058 40.4157 40.8927 40.5015C41.4511 40.5387 42.0955 40.3497 42.8389 39.853C43.5848 39.3545 44.3443 38.6012 45.0789 37.6763C46.5489 35.8252 47.7499 33.5031 48.426 31.8684C48.4375 31.8405 48.4442 31.8147 48.4477 31.7849C48.6901 29.6903 48.5984 27.3602 47.6042 25.6061C46.7012 24.0129 44.8736 22.5869 40.8723 22.5683ZM46.9215 43.5659C47.5082 42.9879 48.4004 42.4719 49.4786 42.5271C52.3971 42.6763 54.4227 44.097 55.7231 45.8769C56.9875 47.6074 57.5615 49.6572 57.75 51.2228C57.8589 52.127 57.5665 53.0103 56.9866 53.6729C54.5576 56.4478 48.7467 61.0524 41.1286 61.0524C33.7871 61.0524 27.5832 56.7686 24.6998 54.0338C23.742 53.1253 23.4151 51.7117 23.9395 50.4629C25.9857 45.5891 30.1054 43.4618 32.8384 42.7779C34.3047 42.411 35.5616 43.1931 36.2538 44.0507C38.1315 46.3774 40.0931 46.779 41.8629 46.4498C43.7725 46.0947 45.625 44.8429 46.9215 43.5659ZM49.2445 45.5458C49.1871 45.5716 49.1097 45.6214 49.0267 45.7031C47.4949 47.212 45.1269 48.8943 42.4114 49.3993C39.5561 49.9303 36.4881 49.118 33.9192 45.9348C33.8192 45.8109 33.7146 45.7386 33.6415 45.7069C33.6077 45.6922 33.5866 45.6886 33.5782 45.6877C33.5714 45.687 33.5692 45.6875 33.5666 45.6882C31.4609 46.2151 28.284 47.8646 26.7056 51.6242C26.6774 51.6913 26.6866 51.7835 26.7643 51.8571C29.3783 54.3364 34.8769 58.0524 41.1286 58.0524C47.5654 58.0524 52.6217 54.1047 54.7292 51.6969C54.7685 51.6521 54.775 51.6106 54.7715 51.5815C54.6247 50.3627 54.1777 48.847 53.3008 47.6467C52.4599 46.4957 51.2238 45.6202 49.3255 45.5231L49.3254 45.5231C49.3231 45.523 49.2983 45.5217 49.2445 45.5458Z"
          fill="#F9F9F9"/>
</svg>
