<svg width="14" height="15" viewBox="0 0 14 15" fill="none" xmlns="http://www.w3.org/2000/svg">
<path d="M6.47447 0.508174C5.43681 0.606738 4.66471 0.825771 3.79132 1.26931C2.75639 1.79773 1.82824 2.63005 1.14924 3.6376C0.864495 4.06472 0.514043 4.78479 0.344292 5.29404C0.210135 5.70473 0.100618 6.17291 0.0349084 6.63562C-0.0116361 6.95869 -0.0116361 8.03743 0.0349084 8.3605C0.149901 9.16818 0.363458 9.87457 0.697483 10.5508C1.07258 11.3174 1.44219 11.8322 2.05001 12.4427C2.65509 13.0451 3.17803 13.4202 3.91453 13.7816C4.42925 14.0335 4.76054 14.1567 5.28348 14.2881C6.65244 14.6331 8.02687 14.5673 9.36297 14.0937C9.77366 13.9486 10.48 13.5926 10.8414 13.3517C12.3747 12.3277 13.4479 10.7726 13.8395 9.00391C13.9298 8.59322 13.9763 8.20718 13.9955 7.73078C14.0366 6.56443 13.7956 5.45284 13.2754 4.40696C12.9359 3.72248 12.5554 3.18311 12.0215 2.63279C11.4356 2.02498 10.8442 1.59512 10.0748 1.21455C9.2644 0.814819 8.50874 0.598525 7.61071 0.516387C7.33144 0.491746 6.69898 0.48627 6.47447 0.508174ZM7.96664 1.44454C9.68604 1.73476 11.1371 2.67112 12.1036 4.11948C12.5937 4.8505 12.914 5.6883 13.0646 6.60824C13.1303 7.02714 13.1303 7.96898 13.0646 8.38788C12.7689 10.2168 11.7669 11.7336 10.2117 12.7138C9.54641 13.1327 8.74146 13.4284 7.8845 13.568C7.46286 13.6337 6.52376 13.6337 6.10486 13.5653C4.74411 13.3435 3.62157 12.7768 2.66604 11.824C1.72146 10.8849 1.1465 9.74862 0.924729 8.38788C0.859019 7.96898 0.859019 7.02714 0.924729 6.60824C1.21221 4.83681 2.14858 3.36929 3.6161 2.38912C4.4539 1.82785 5.46418 1.47739 6.50185 1.38157C6.79755 1.35419 7.6463 1.39252 7.96664 1.44454Z" fill="#FDC04E"/>
<path d="M6.61417 2.28226C5.96802 2.42464 5.4177 2.98317 5.28081 3.63753C5.19867 4.02631 5.26712 4.86411 5.65317 8.19067C5.72983 8.8423 5.81196 9.05038 6.09671 9.32417C6.62786 9.82521 7.43554 9.8033 7.93932 9.27489C8.11455 9.09145 8.24323 8.83956 8.2843 8.6041C8.31989 8.39328 8.53618 6.49043 8.62106 5.62251C8.72236 4.6177 8.75522 4.11666 8.73879 3.87025C8.66213 2.81068 7.65458 2.05776 6.61417 2.28226ZM7.37257 3.21042C7.5697 3.31172 7.66005 3.39659 7.75862 3.58003C7.82433 3.70324 7.85171 3.79633 7.86266 3.93049C7.8873 4.23987 7.78052 5.39253 7.52863 7.53631C7.40269 8.61505 7.40269 8.61231 7.2302 8.74099C7.12342 8.82039 6.86606 8.82039 6.75928 8.74099C6.62786 8.64517 6.58132 8.55482 6.55668 8.35769C6.29657 6.28509 6.09944 4.23166 6.12682 3.92227C6.16242 3.5417 6.42252 3.23779 6.7894 3.14197C6.93724 3.1009 7.22473 3.13649 7.37257 3.21042Z" fill="#FDC04E"/>
<path d="M6.66617 10.1703C5.97348 10.3565 5.54363 11.0765 5.71885 11.7555C5.90229 12.4564 6.61963 12.8918 7.30684 12.7138C8.00775 12.5304 8.44307 11.813 8.26511 11.1313C8.08167 10.4222 7.35339 9.9841 6.66617 10.1703ZM7.16447 11.0409C7.44648 11.1587 7.51492 11.5255 7.29589 11.7446C7.11793 11.9225 6.86604 11.9225 6.68807 11.7446C6.34857 11.4078 6.72367 10.8548 7.16447 11.0409Z" fill="#FDC04E"/>
</svg>
