<svg width="20" height="22" viewBox="0 0 20 22" fill="none" xmlns="http://www.w3.org/2000/svg">
<path class="fill" d="M9.13 0.0498867C5.78197 0.432713 3.0365 3.01356 2.38726 6.38587C2.25572 7.06549 2.2345 7.64188 2.2345 10.3303V13.0359L1.19911 14.8554C0.630498 15.8533 0.138265 16.7566 0.100074 16.8598C-0.129069 17.5523 0.0406668 18.2535 0.554117 18.7782C0.842667 19.0707 1.15243 19.2385 1.5301 19.3073C1.69559 19.3374 2.67157 19.3546 4.33922 19.3546H6.89374L6.92344 19.5138C7.07196 20.3311 7.74666 21.2257 8.50622 21.6258C9.04938 21.914 9.38885 21.9957 9.97868 22C10.594 22 10.8274 21.9484 11.379 21.6774C11.8755 21.4365 12.2701 21.0924 12.5926 20.6322C12.7963 20.3354 13.0212 19.8192 13.0764 19.5138L13.1061 19.3546H15.6606C17.307 19.3546 18.3042 19.3374 18.4697 19.3073C19.6578 19.0879 20.3495 17.7373 19.8191 16.6705C19.7597 16.5544 19.2759 15.6855 18.737 14.7478L17.7653 13.0359V10.3561C17.7653 8.88069 17.7441 7.45692 17.7229 7.18593C17.6337 6.20091 17.3876 5.30191 16.959 4.40722C16.5305 3.52113 16.0552 2.86301 15.3253 2.15758C13.6874 0.570356 11.3917 -0.2125 9.13 0.0498867ZM11.2729 1.15965C12.6181 1.43494 13.751 2.04574 14.7143 3.00926C15.7497 4.0459 16.365 5.22449 16.6493 6.72998C16.7129 7.06549 16.7257 7.53435 16.7426 10.2356L16.7681 13.3542L17.8586 15.2683C18.457 16.3221 18.9577 17.2512 18.9747 17.3373C19.0426 17.7115 18.7455 18.176 18.3721 18.275C18.2448 18.3094 15.8982 18.3223 9.90654 18.3137C2.20055 18.3008 1.61072 18.2965 1.48766 18.2277C1.17365 18.0513 0.965725 17.6556 1.02513 17.3373C1.04211 17.2512 1.54283 16.3221 2.14114 15.2683L3.23169 13.3542L3.25715 10.2356C3.27413 7.53435 3.28686 7.06549 3.35051 6.72998C3.56268 5.61161 3.96156 4.67391 4.60231 3.78351C4.91632 3.34907 5.65467 2.61783 6.10871 2.29092C6.99133 1.65862 8.12856 1.21127 9.20214 1.07362C9.7071 1.0091 10.7637 1.05211 11.2729 1.15965ZM12.0197 19.5181C11.9009 19.8536 11.7651 20.073 11.4893 20.3483C10.6449 21.1999 9.3549 21.1999 8.51047 20.3483C8.23465 20.073 8.09886 19.8536 7.98004 19.5181L7.92488 19.3546H9.9999H12.0749L12.0197 19.5181Z" fill="#4C4C4C"/>
</svg>
